<svg width="1689" height="1147" xmlns="http://www.w3.org/2000/svg" xmlns:xlink="http://www.w3.org/1999/xlink" xml:space="preserve" overflow="hidden"><defs><clipPath id="clip0"><rect x="956" y="709" width="1689" height="1147"/></clipPath></defs><g clip-path="url(#clip0)" transform="translate(-956 -709)"><path d="M1030 803.287C1030 755.08 1069.08 716 1117.29 716L2496.71 716C2544.92 716 2584 755.08 2584 803.287L2584 1761.71C2584 1809.92 2544.92 1849 2496.71 1849L1117.29 1849C1069.08 1849 1030 1809.92 1030 1761.71Z" stroke="#000000" stroke-width="13.75" stroke-miterlimit="8" fill="none" fill-rule="evenodd"/><path d="M1030 802.147C1030 754.569 1068.57 716 1116.15 716L2497.85 716C2545.43 716 2584 754.569 2584 802.147L2584 817.853C2584 865.431 2545.43 904 2497.85 904L1116.15 904C1068.57 904 1030 865.431 1030 817.853Z" stroke="#000000" stroke-width="13.75" stroke-miterlimit="8" fill="none" fill-rule="evenodd"/><path d="M1086 810C1086 787.356 1104.36 769 1127 769 1149.64 769 1168 787.356 1168 810 1168 832.644 1149.64 851 1127 851 1104.36 851 1086 832.644 1086 810Z" fill="#ED7D31" fill-rule="evenodd"/><path d="M1184 810C1184 787.356 1202.13 769 1224.5 769 1246.87 769 1265 787.356 1265 810 1265 832.644 1246.87 851 1224.5 851 1202.13 851 1184 832.644 1184 810Z" fill="#FFFF00" fill-rule="evenodd"/><path d="M1281 810C1281 787.356 1299.13 769 1321.5 769 1343.87 769 1362 787.356 1362 810 1362 832.644 1343.87 851 1321.5 851 1299.13 851 1281 832.644 1281 810Z" fill="#70AD47" fill-rule="evenodd"/><text font-family="Abadi,Abadi_MSFontService,sans-serif" font-weight="400" font-size="330" transform="matrix(1 0 0 1 1154.08 1393)">name.ftm</text></g></svg>